<?xml version="1.0" standalone="no"?>
<!DOCTYPE svg PUBLIC "-//W3C//DTD SVG 20010904//EN"
 "http://www.w3.org/TR/2001/REC-SVG-20010904/DTD/svg10.dtd">
<svg version="1.0" xmlns="http://www.w3.org/2000/svg"
 width="256.000000pt" height="256.000000pt" viewBox="0 0 256.000000 256.000000"
 preserveAspectRatio="xMidYMid meet">
<metadata>
Created by potrace 1.14, written by Peter Selinger 2001-2017
</metadata>
<g transform="translate(0.000000,256.000000) scale(0.100000,-0.100000)"
fill="#000000" stroke="none">
<path d="M1155 2502 c-267 -44 -455 -120 -634 -257 -53 -41 -205 -203 -247
-265 -157 -229 -220 -440 -217 -725 5 -509 333 -960 824 -1133 90 -32 105 -35
234 -56 82 -13 255 -14 335 -2 487 72 888 429 1016 903 14 52 16 65 30 153 10
66 11 258 2 310 -5 25 -10 56 -12 70 -11 80 -54 213 -99 305 -121 249 -320
452 -562 573 -84 42 -216 89 -275 98 -19 3 -38 8 -41 9 -21 13 -298 27 -354
17z"/>
</g>
</svg>
